<svg xmlns="http://www.w3.org/2000/svg" xmlns:xlink="http://www.w3.org/1999/xlink" version="1.1" width="256" height="256" viewBox="0 0 256 256" xml:space="preserve">
<g style="stroke: none; stroke-width: 0; stroke-dasharray: none; stroke-linecap: butt; stroke-linejoin: miter; stroke-miterlimit: 10; fill: none; fill-rule: nonzero; opacity: 1;" transform="translate(1.4065934065934016 1.4065934065934016) scale(2.81 2.81)">
	<path d="M 22.431 0 l 44.898 0.006 c 0.095 0 0.186 0.029 0.262 0.083 l 0.106 0.077 c -0.03 0.011 -0.056 0.024 -0.077 0.037 c -0.032 0.017 -0.048 0.044 -0.048 0.08 l -0.006 21.536 c -0.004 0 -0.009 0 -0.014 0 H 22.442 c -0.002 -0.002 -0.005 -0.005 -0.009 -0.009 L 22.431 0 z" style="stroke: none; stroke-width: 1; stroke-dasharray: none; stroke-linecap: butt; stroke-linejoin: miter; stroke-miterlimit: 10; fill: rgb(251,188,4); fill-rule: nonzero; opacity: 1;" transform=" matrix(1 0 0 1 0 0) " stroke-linecap="round"/>
    <path d="M 0.649 21.805 l 21.785 0.006 c 0.004 0.004 0.007 0.007 0.009 0.009 l 0.006 30.141 L 0.649 51.955 V 21.805 z" style="stroke: none; stroke-width: 1; stroke-dasharray: none; stroke-linecap: butt; stroke-linejoin: miter; stroke-miterlimit: 10; fill: rgb(38,132,252); fill-rule: nonzero; opacity: 1;" transform=" matrix(1 0 0 1 0 0) " stroke-linecap="round"/>
    <path d="M 89.217 21.75 h 0.134 v 45.262 c -0.506 2.763 -1.938 4.547 -4.295 5.353 c -0.84 0.289 -2.079 0.432 -3.716 0.428 c -10.627 -0.017 -21.363 -0.033 -32.206 -0.048 c -1.574 -0.002 -3.172 0.01 -4.792 0.034 c -0.089 0.002 -0.165 0.034 -0.228 0.097 c -5.305 5.28 -10.629 10.606 -15.972 15.978 c -0.819 0.824 -1.746 1.283 -2.921 1.109 c -1.095 -0.162 -1.902 -0.726 -2.421 -1.694 c -0.219 -0.411 -0.33 -1.16 -0.334 -2.247 c -0.013 -4.409 -0.018 -8.833 -0.014 -13.271 l -0.003 -10.918 l 10.775 -10.775 c 0.095 -0.095 0.224 -0.148 0.359 -0.148 l 33.741 0.011 c 0.131 0 0.237 -0.106 0.237 -0.237 l 0 0 l 0.006 -28.865" style="stroke: none; stroke-width: 1; stroke-dasharray: none; stroke-linecap: butt; stroke-linejoin: miter; stroke-miterlimit: 10; fill: rgb(0,172,71); fill-rule: nonzero; opacity: 1;" transform=" matrix(1 0 0 1 0 0) " stroke-linecap="round"/>
    <path d="M 67.697 0.165 L 89.351 21.75 l -21.785 0.068 l 0.006 -21.536 c 0 -0.036 0.016 -0.063 0.048 -0.08 C 67.641 0.189 67.667 0.177 67.697 0.165 z" style="stroke: none; stroke-width: 1; stroke-dasharray: none; stroke-linecap: butt; stroke-linejoin: miter; stroke-miterlimit: 10; fill: rgb(234,67,53); fill-rule: nonzero; opacity: 1;" transform=" matrix(1 0 0 1 0 0) " stroke-linecap="round"/>
    <path d="M 22.431 0 l 0.003 21.81 L 0.649 21.805 V 5.778 c 0.162 -1.133 0.497 -2.085 1.007 -2.855 C 2.913 1.018 4.74 0.059 7.138 0.046 C 12.207 0.019 17.305 0.004 22.431 0 z" style="stroke: none; stroke-width: 1; stroke-dasharray: none; stroke-linecap: butt; stroke-linejoin: miter; stroke-miterlimit: 10; fill: rgb(0,102,218); fill-rule: nonzero; opacity: 1;" transform=" matrix(1 0 0 1 0 0) " stroke-linecap="round"/>
    <path d="M 22.448 51.96 v 10.884 l 0.003 10.918 c -4.558 0.027 -9.076 0.035 -13.556 0.026 c -1.867 -0.004 -3.212 -0.15 -4.036 -0.439 c -2.308 -0.806 -3.712 -2.594 -4.21 -5.362 V 51.955 L 22.448 51.96 z" style="stroke: none; stroke-width: 1; stroke-dasharray: none; stroke-linecap: butt; stroke-linejoin: miter; stroke-miterlimit: 10; fill: rgb(0,131,45); fill-rule: nonzero; opacity: 1;" transform=" matrix(1 0 0 1 0 0) " stroke-linecap="round"/>
</g>
</svg>
